<?xml version="1.0" standalone="no"?><!DOCTYPE svg PUBLIC "-//W3C//DTD SVG 1.1//EN" "http://www.w3.org/Graphics/SVG/1.1/DTD/svg11.dtd"><svg t="1715930676733" class="icon" viewBox="0 0 1024 1024" version="1.1" xmlns="http://www.w3.org/2000/svg" p-id="13134" xmlns:xlink="http://www.w3.org/1999/xlink" width="200" height="200"><path d="M72.533333 66.005333V957.866667h144.298667v-89.088H144.682667V155.136h72.149333v-89.173333z m734.634667 0v89.173334h72.277333v713.685333h-72.277333v89.173333h144.341333V66.048z m-160.128 105.002667c-21.333333 0-39.68 3.2-55.04 9.6-15.36 6.357333-27.818667 15.872-37.418667 28.586667a127.573333 127.573333 0 0 0-21.077333 47.36 286.506667 286.506667 0 0 0-6.656 65.706666 298.666667 298.666667 0 0 0 6.4 65.109334c4.309333 18.858667 11.306667 34.645333 20.906667 47.36 9.514667 12.757333 21.888 22.4 37.248 28.885333 15.36 6.485333 33.92 9.813333 55.637333 9.813333 22.101333 0 40.704-3.2 55.808-9.6a90.88 90.88 0 0 0 37.034667-28.586666c9.386667-12.373333 16.256-28.245333 20.693333-47.488 4.437333-19.370667 6.656-41.258667 6.656-65.706667s-2.218667-45.994667-6.485333-64.597333a124.586667 124.586667 0 0 0-20.693334-47.189334 89.173333 89.173333 0 0 0-37.077333-29.269333c-15.061333-6.656-33.706667-9.984-55.936-9.984z m-290.730667 5.12a40.149333 40.149333 0 0 1-5.888 19.541333 36.224 36.224 0 0 1-15.189333 12.629334 72.96 72.96 0 0 1-21.461333 5.845333 223.744 223.744 0 0 1-26.922667 1.578667v47.36h61.226667v153.6H286.848v50.688h193.92V416.64H420.821333V176.128z m290.730667 48.554667c16 0 27.434667 7.509333 34.346667 22.485333 6.869333 14.805333 10.282667 39.765333 10.282666 74.922667 0 34.688-3.498667 59.690667-10.538666 74.88-6.997333 15.232-18.346667 22.784-34.090667 22.784s-27.136-7.552-34.176-22.784-10.538667-40.106667-10.538667-74.581334c0-35.413333 3.498667-60.416 10.368-75.221333 6.912-14.933333 18.346667-22.485333 34.346667-22.485333z m-270.08 325.973333c-21.333333 0-39.68 3.114667-55.04 9.514667a88.234667 88.234667 0 0 0-37.418667 28.714666c-9.642667 12.842667-16.64 28.586667-21.077333 47.189334s-6.613333 40.490667-6.613333 65.706666c0 24.448 2.090667 46.165333 6.4 65.152 4.266667 18.858667 11.264 34.688 20.906666 47.445334 9.472 12.757333 21.930667 22.357333 37.290667 28.885333s33.834667 9.728 55.552 9.728c22.101333 0 40.704-3.2 55.808-9.6a91.306667 91.306667 0 0 0 37.077333-28.586667c9.344-12.373333 16.213333-28.245333 20.650667-47.488 4.437333-19.370667 6.656-41.258667 6.656-65.706666s-2.133333-45.994667-6.4-64.597334a124.714667 124.714667 0 0 0-20.778667-47.189333 88.917333 88.917333 0 0 0-36.992-29.269333c-15.061333-6.656-33.792-9.941333-56.021333-9.941334z m249.386667 5.034667a40.149333 40.149333 0 0 1-5.845334 19.541333 36.224 36.224 0 0 1-15.232 12.629333c-5.717333 2.730667-12.842667 4.693333-21.418666 5.845334a223.786667 223.786667 0 0 1-26.922667 1.578666v47.445334h61.226667v153.472h-61.226667v50.730666h193.877333v-50.773333h-59.904v-240.512H626.346667z m-249.386667 48.554666c16 0 27.434667 7.509333 34.346667 22.485334 6.869333 14.805333 10.282667 39.765333 10.282666 74.88 0 34.730667-3.413333 59.733333-10.453333 74.922666-6.997333 15.232-18.432 22.784-34.133333 22.784s-27.178667-7.552-34.218667-22.784-10.453333-40.064-10.453333-74.496c0-35.413333 3.413333-60.501333 10.282666-75.306666 6.912-14.933333 18.346667-22.485333 34.346667-22.485334z" fill="#FF6E40" p-id="13135"></path></svg>